<svg width="136" height="47" viewBox="0 0 136 47" fill="none" xmlns="http://www.w3.org/2000/svg">
<path d="M95.8807 14.2334C95.6174 14.3931 95.0169 14.5602 94.5233 14.5966C94.0296 14.6331 93.1954 14.8526 92.6574 15.0501C91.7755 15.3959 91.5781 15.4105 90.8277 15.2554C90.3603 15.1496 89.921 15.1295 89.8666 15.1861C89.8124 15.2427 89.9079 15.6216 90.0645 16.0133C90.3478 16.6939 90.3397 16.8174 89.9385 17.6187C88.9816 19.4783 89.4744 21.5291 91.2044 22.7869C91.7806 23.2005 92.0934 23.5632 92.1215 23.8593C92.1727 24.3992 92.5826 24.5268 92.6942 24.0274C92.7861 23.5295 93.1663 23.5541 93.4562 24.094C93.6736 24.4988 93.7361 24.5293 93.9121 24.2883C94.0699 24.0661 94.5783 23.976 96.1186 23.8623C98.0536 23.7194 98.1507 23.6946 99.7218 22.8595C101.444 21.943 102.847 20.5942 102.785 19.9324C102.751 19.584 102.73 19.568 102.283 19.8817C101.667 20.313 100.795 20.3423 100.163 19.9681C99.7221 19.72 99.6002 19.4834 99.4006 18.4283C99.2522 17.7026 98.9803 16.9334 98.684 16.5344C98.1785 15.8175 98.1785 15.8175 99.0241 15.2991C99.5505 14.9796 99.371 14.7649 98.5812 14.8232C98.0086 14.8655 97.9049 14.8205 98.0678 14.6506C98.4658 14.2354 98.2534 14.0932 97.4735 14.256C96.8878 14.3694 96.687 14.3492 96.6688 14.1576C96.6407 13.8615 96.4828 13.8732 95.8807 14.2334ZM93.4856 16.2342C93.1552 16.9427 92.6237 16.9994 92.7979 16.3201C92.8372 16.1068 93.0593 15.9325 93.2765 15.9165C93.5924 15.8932 93.6369 15.9425 93.4856 16.2342Z" fill="black"/>
<path d="M63.5477 22.8875L62.6721 21.8488L47.5997 26.3518L50.2392 12.4557L48.0668 12.0215L43.6208 25.6746L34.8823 18.8848L33.5846 19.4891L42.2763 29.801L39.3684 41.4902L46.015 41.4902L45.6215 39.9858C44.8838 37.1663 45.1748 34.1371 46.4457 31.4063L46.7743 30.7L63.5477 22.8875Z" fill="black"/>
<path d="M53.2841 4.04651C53.0067 4.58832 53.2643 5.04282 53.8787 5.13022C54.3938 5.20012 54.6514 4.50101 54.3146 3.9592C54.0173 3.4523 53.5616 3.5047 53.2841 4.04651ZM54.1164 4.48351C54.1164 4.90292 53.6607 4.85052 53.5616 4.41361C53.522 4.23881 53.621 4.11641 53.7993 4.11641C53.9975 4.11641 54.1164 4.27372 54.1164 4.48351Z" fill="black"/>
<path d="M51.1808 0.162077C51.1214 0.249459 50.7845 0.284419 50.4476 0.214508L49.8334 0.109637L49.9523 0.896146C50.0712 1.66514 50.0514 1.70014 49.3579 2.10214C48.9417 2.32934 48.3274 2.87115 47.9509 3.30806C47.5745 3.74506 47.0791 4.16456 46.8215 4.25187C46.128 4.49658 45.375 4.12957 45.0183 3.39546C44.4239 2.13705 43.8097 2.88865 44.0079 4.61897C44.2258 6.4891 46.0289 8.95352 47.8915 9.94974C48.4464 10.2468 48.6841 10.4741 48.6247 10.6838C48.5256 11.0509 48.7634 11.0858 49.2786 10.7887C49.4767 10.6838 49.7938 10.6488 49.992 10.7188C50.2693 10.8062 50.2891 10.8761 50.0909 11.1033C49.8929 11.2781 49.8929 11.4179 50.0514 11.5577C50.19 11.6801 50.3288 11.6276 50.527 11.3655C50.7449 11.0509 50.9826 10.9984 51.9734 10.9984C53.2614 10.9984 54.589 10.5615 55.4212 9.89725C56.1543 9.30303 57.0261 7.53781 57.0261 6.6289C57.0261 5.94729 57.1055 5.78999 57.7197 5.35299C58.7699 4.61897 58.5916 4.25187 57.0261 3.93727C56.7488 3.88487 56.2732 3.51786 55.9562 3.13335C55.659 2.73135 55.0447 2.20695 54.6285 1.96234C54.2125 1.71763 53.8558 1.47293 53.8558 1.40303C53.8558 1.35054 53.618 1.07093 53.3406 0.808756C53.0038 0.494152 52.7065 0.35433 52.4885 0.424241C52.2905 0.476671 52.013 0.406761 51.8743 0.249459C51.597 -0.0476653 51.3591 -0.0826163 51.1808 0.162077ZM52.7264 1.35054C52.8056 1.19323 52.9641 1.24573 53.2415 1.57783C53.4595 1.82244 53.9945 2.24194 54.4106 2.48665C54.8267 2.74885 55.3815 3.27316 55.6391 3.64016C55.976 4.11207 56.3326 4.37427 56.729 4.46167C57.6405 4.63647 57.6602 4.68887 57.0261 5.17828C56.5902 5.49288 56.4317 5.75499 56.4317 6.17449C56.4317 7.11831 55.8571 8.51652 55.1834 9.19814C54.4305 9.96724 53.2415 10.4566 52.1914 10.474C51.1214 10.474 49.1597 10.0021 48.1689 9.49533C46.4847 8.63892 44.6023 6.1395 44.4239 4.51407C44.3844 4.09457 44.4041 3.84996 44.4636 3.97227C44.6419 4.32187 45.6524 4.70637 46.3856 4.70637C47.0989 4.70637 47.198 4.63647 48.5256 3.25566C48.8823 2.88865 49.5164 2.43424 49.9523 2.24194C50.6656 1.90984 50.725 1.83994 50.6062 1.33313C50.5071 0.896146 50.527 0.826236 50.725 1.00103C51.062 1.29813 51.478 1.26323 51.478 0.913626C51.478 0.686413 51.597 0.721365 52.0526 1.10592C52.4688 1.45543 52.6471 1.52534 52.7264 1.35054Z" fill="black"/>
<path d="M10.032 42.1812C8.752 42.1812 7.56 41.9732 6.456 41.5572C5.368 41.1252 4.416 40.5252 3.6 39.7572C2.8 38.9732 2.176 38.0532 1.728 36.9972C1.28 35.9412 1.056 34.7892 1.056 33.5412C1.056 32.2932 1.28 31.1412 1.728 30.0852C2.176 29.0292 2.808 28.1172 3.624 27.3492C4.44 26.5652 5.392 25.9652 6.48 25.5492C7.568 25.1172 8.76 24.9012 10.056 24.9012C11.432 24.9012 12.688 25.1412 13.824 25.6212C14.96 26.0852 15.92 26.7812 16.704 27.7092L14.688 29.6052C14.08 28.9492 13.4 28.4612 12.648 28.1412C11.896 27.8052 11.08 27.6372 10.2 27.6372C9.32 27.6372 8.512 27.7812 7.776 28.0692C7.056 28.3572 6.424 28.7652 5.88 29.2932C5.352 29.8212 4.936 30.4452 4.632 31.1652C4.344 31.8852 4.2 32.6772 4.2 33.5412C4.2 34.4052 4.344 35.1972 4.632 35.9172C4.936 36.6372 5.352 37.2612 5.88 37.7892C6.424 38.3172 7.056 38.7252 7.776 39.0132C8.512 39.3012 9.32 39.4452 10.2 39.4452C11.08 39.4452 11.896 39.2852 12.648 38.9652C13.4 38.6292 14.08 38.1252 14.688 37.4532L16.704 39.3732C15.92 40.2852 14.96 40.9812 13.824 41.4612C12.688 41.9412 11.424 42.1812 10.032 42.1812ZM26.6775 28.9812C27.7015 28.9812 28.6135 29.1812 29.4135 29.5812C30.2295 29.9812 30.8695 30.5972 31.3335 31.4292C31.7975 32.2452 32.0295 33.3012 32.0295 34.5972V41.9412H29.0295V34.9812C29.0295 33.8452 28.7575 32.9972 28.2135 32.4372C27.6855 31.8772 26.9415 31.5972 25.9815 31.5972C25.2775 31.5972 24.6535 31.7412 24.1095 32.0292C23.5655 32.3172 23.1415 32.7492 22.8375 33.3252C22.5495 33.8852 22.4055 34.5972 22.4055 35.4612V41.9412H19.4055V24.1332H22.4055V32.5812L21.7575 31.5252C22.2055 30.7092 22.8535 30.0852 23.7015 29.6532C24.5655 29.2052 25.5575 28.9812 26.6775 28.9812ZM55.7336 41.9412V29.1252H58.5896V32.6532L58.2536 31.6212C58.6376 30.7572 59.2376 30.1012 60.0536 29.6532C60.8856 29.2052 61.9176 28.9812 63.1496 28.9812V31.8372C63.0216 31.8052 62.9016 31.7892 62.7896 31.7892C62.6776 31.7732 62.5656 31.7652 62.4536 31.7652C61.3176 31.7652 60.4136 32.1012 59.7416 32.7732C59.0696 33.4292 58.7336 34.4132 58.7336 35.7252V41.9412H55.7336ZM72.7986 42.1092C71.7586 42.1092 70.8066 41.8692 69.9426 41.3892C69.0946 40.9092 68.4146 40.1892 67.9026 39.2292C67.4066 38.2532 67.1586 37.0212 67.1586 35.5332C67.1586 34.0292 67.3986 32.7972 67.8786 31.8372C68.3746 30.8772 69.0466 30.1652 69.8946 29.7012C70.7426 29.2212 71.7106 28.9812 72.7986 28.9812C74.0626 28.9812 75.1746 29.2532 76.1346 29.7972C77.1106 30.3412 77.8786 31.1012 78.4386 32.0772C79.0146 33.0532 79.3026 34.2052 79.3026 35.5332C79.3026 36.8612 79.0146 38.0212 78.4386 39.0132C77.8786 39.9892 77.1106 40.7492 76.1346 41.2932C75.1746 41.8372 74.0626 42.1092 72.7986 42.1092ZM65.6946 46.5972V29.1252H68.5506V32.1492L68.4546 35.5572L68.6946 38.9652V46.5972H65.6946ZM72.4626 39.5412C73.1826 39.5412 73.8226 39.3812 74.3826 39.0612C74.9586 38.7412 75.4146 38.2772 75.7506 37.6692C76.0866 37.0612 76.2546 36.3492 76.2546 35.5332C76.2546 34.7012 76.0866 33.9892 75.7506 33.3972C75.4146 32.7892 74.9586 32.3252 74.3826 32.0052C73.8226 31.6852 73.1826 31.5252 72.4626 31.5252C71.7426 31.5252 71.0946 31.6852 70.5186 32.0052C69.9426 32.3252 69.4866 32.7892 69.1506 33.3972C68.8146 33.9892 68.6466 34.7012 68.6466 35.5332C68.6466 36.3492 68.8146 37.0612 69.1506 37.6692C69.4866 38.2772 69.9426 38.7412 70.5186 39.0612C71.0946 39.3812 71.7426 39.5412 72.4626 39.5412ZM82.4357 41.9412V25.1412H90.3077C92.3237 25.1412 93.8597 25.5412 94.9157 26.3412C95.9717 27.1252 96.4997 28.1812 96.4997 29.5092C96.4997 30.4052 96.2917 31.1732 95.8757 31.8132C95.4597 32.4372 94.8997 32.9252 94.1957 33.2772C93.5077 33.6132 92.7557 33.7812 91.9397 33.7812L92.3717 32.9172C93.3157 32.9172 94.1637 33.0932 94.9157 33.4452C95.6677 33.7812 96.2597 34.2772 96.6917 34.9332C97.1397 35.5892 97.3637 36.4052 97.3637 37.3812C97.3637 38.8212 96.8117 39.9412 95.7077 40.7412C94.6037 41.5412 92.9637 41.9412 90.7877 41.9412H82.4357ZM85.5557 39.4932H90.5957C91.7637 39.4932 92.6597 39.3012 93.2837 38.9172C93.9077 38.5332 94.2197 37.9172 94.2197 37.0692C94.2197 36.2372 93.9077 35.6292 93.2837 35.2452C92.6597 34.8452 91.7637 34.6452 90.5957 34.6452H85.3157V32.2212H89.9717C91.0597 32.2212 91.8917 32.0292 92.4677 31.6452C93.0597 31.2612 93.3557 30.6852 93.3557 29.9172C93.3557 29.1332 93.0597 28.5492 92.4677 28.1652C91.8917 27.7812 91.0597 27.5892 89.9717 27.5892H85.5557V39.4932ZM106.166 42.1092C104.854 42.1092 103.686 41.8292 102.662 41.2692C101.638 40.6932 100.83 39.9092 100.238 38.9172C99.6455 37.9252 99.3495 36.7972 99.3495 35.5332C99.3495 34.2532 99.6455 33.1252 100.238 32.1492C100.83 31.1572 101.638 30.3812 102.662 29.8212C103.686 29.2612 104.854 28.9812 106.166 28.9812C107.494 28.9812 108.67 29.2612 109.694 29.8212C110.734 30.3812 111.542 31.1492 112.118 32.1252C112.71 33.1012 113.006 34.2372 113.006 35.5332C113.006 36.7972 112.71 37.9252 112.118 38.9172C111.542 39.9092 110.734 40.6932 109.694 41.2692C108.67 41.8292 107.494 42.1092 106.166 42.1092ZM106.166 39.5412C106.902 39.5412 107.558 39.3812 108.134 39.0612C108.71 38.7412 109.158 38.2772 109.478 37.6692C109.814 37.0612 109.982 36.3492 109.982 35.5332C109.982 34.7012 109.814 33.9892 109.478 33.3972C109.158 32.7892 108.71 32.3252 108.134 32.0052C107.558 31.6852 106.91 31.5252 106.19 31.5252C105.454 31.5252 104.798 31.6852 104.222 32.0052C103.662 32.3252 103.214 32.7892 102.878 33.3972C102.542 33.9892 102.374 34.7012 102.374 35.5332C102.374 36.3492 102.542 37.0612 102.878 37.6692C103.214 38.2772 103.662 38.7412 104.222 39.0612C104.798 39.3812 105.446 39.5412 106.166 39.5412ZM113.7 41.9412L119.34 34.5972L119.292 36.2052L113.916 29.1252H117.252L121.02 34.1652H119.748L123.54 29.1252H126.78L121.356 36.2052L121.38 34.5972L126.996 41.9412H123.612L119.652 36.5892L120.9 36.7572L117.012 41.9412H113.7Z" fill="black"/>
</svg>
